<mxfile host="Electron" agent="Mozilla/5.0 (Windows NT 10.0; Win64; x64) AppleWebKit/537.36 (KHTML, like Gecko) draw.io/26.0.16 Chrome/132.0.6834.196 Electron/34.2.0 Safari/537.36" version="26.0.16">
  <diagram name="Page-1" id="IIiRVse2NPH4YkagHg5q">
    <mxGraphModel dx="803" dy="477" grid="1" gridSize="10" guides="1" tooltips="1" connect="1" arrows="1" fold="1" page="1" pageScale="1" pageWidth="850" pageHeight="1100" math="0" shadow="0">
      <root>
        <mxCell id="0" />
        <mxCell id="1" parent="0" />
        <mxCell id="q3sXnCFsbR7L5QOpBw34-1" value="" style="rounded=0;whiteSpace=wrap;html=1;fillColor=none;dashed=1;" parent="1" vertex="1">
          <mxGeometry x="53" y="150" width="150" height="410" as="geometry" />
        </mxCell>
        <mxCell id="q3sXnCFsbR7L5QOpBw34-19" style="edgeStyle=orthogonalEdgeStyle;rounded=0;orthogonalLoop=1;jettySize=auto;html=1;entryX=0;entryY=0.5;entryDx=0;entryDy=0;" parent="1" source="q3sXnCFsbR7L5QOpBw34-2" target="q3sXnCFsbR7L5QOpBw34-7" edge="1">
          <mxGeometry relative="1" as="geometry" />
        </mxCell>
        <mxCell id="q3sXnCFsbR7L5QOpBw34-20" style="edgeStyle=orthogonalEdgeStyle;rounded=0;orthogonalLoop=1;jettySize=auto;html=1;entryX=0;entryY=0.5;entryDx=0;entryDy=0;" parent="1" source="q3sXnCFsbR7L5QOpBw34-2" target="q3sXnCFsbR7L5QOpBw34-11" edge="1">
          <mxGeometry relative="1" as="geometry" />
        </mxCell>
        <mxCell id="q3sXnCFsbR7L5QOpBw34-21" style="edgeStyle=orthogonalEdgeStyle;rounded=0;orthogonalLoop=1;jettySize=auto;html=1;entryX=0;entryY=0.5;entryDx=0;entryDy=0;" parent="1" source="q3sXnCFsbR7L5QOpBw34-2" target="q3sXnCFsbR7L5QOpBw34-9" edge="1">
          <mxGeometry relative="1" as="geometry" />
        </mxCell>
        <mxCell id="q3sXnCFsbR7L5QOpBw34-2" value="&lt;b&gt;CRM&lt;/b&gt;" style="image;aspect=fixed;html=1;points=[];align=center;fontSize=12;image=img/lib/azure2/general/Folder_Blank.svg;" parent="1" vertex="1">
          <mxGeometry x="93" y="254" width="69" height="56.00000000000001" as="geometry" />
        </mxCell>
        <mxCell id="q3sXnCFsbR7L5QOpBw34-22" style="edgeStyle=orthogonalEdgeStyle;rounded=0;orthogonalLoop=1;jettySize=auto;html=1;" parent="1" source="q3sXnCFsbR7L5QOpBw34-3" target="q3sXnCFsbR7L5QOpBw34-14" edge="1">
          <mxGeometry relative="1" as="geometry" />
        </mxCell>
        <mxCell id="q3sXnCFsbR7L5QOpBw34-23" style="edgeStyle=orthogonalEdgeStyle;rounded=0;orthogonalLoop=1;jettySize=auto;html=1;entryX=0;entryY=0.5;entryDx=0;entryDy=0;" parent="1" source="q3sXnCFsbR7L5QOpBw34-3" target="q3sXnCFsbR7L5QOpBw34-17" edge="1">
          <mxGeometry relative="1" as="geometry" />
        </mxCell>
        <mxCell id="q3sXnCFsbR7L5QOpBw34-24" style="edgeStyle=orthogonalEdgeStyle;rounded=0;orthogonalLoop=1;jettySize=auto;html=1;entryX=0;entryY=0.5;entryDx=0;entryDy=0;" parent="1" source="q3sXnCFsbR7L5QOpBw34-3" target="q3sXnCFsbR7L5QOpBw34-16" edge="1">
          <mxGeometry relative="1" as="geometry" />
        </mxCell>
        <mxCell id="q3sXnCFsbR7L5QOpBw34-3" value="&lt;b&gt;ERP&lt;/b&gt;" style="image;aspect=fixed;html=1;points=[];align=center;fontSize=12;image=img/lib/azure2/general/Folder_Blank.svg;" parent="1" vertex="1">
          <mxGeometry x="93" y="430" width="69" height="56.00000000000001" as="geometry" />
        </mxCell>
        <mxCell id="q3sXnCFsbR7L5QOpBw34-4" value="&lt;font style=&quot;font-size: 17px;&quot;&gt;Sources&lt;/font&gt;" style="text;html=1;align=center;verticalAlign=middle;whiteSpace=wrap;rounded=0;fillColor=default;" parent="1" vertex="1">
          <mxGeometry x="82.5" y="130" width="90" height="30" as="geometry" />
        </mxCell>
        <mxCell id="q3sXnCFsbR7L5QOpBw34-5" value="" style="rounded=1;whiteSpace=wrap;html=1;fillColor=none;strokeColor=#B4B4B4;" parent="1" vertex="1">
          <mxGeometry x="263" y="200" width="135" height="360" as="geometry" />
        </mxCell>
        <mxCell id="q3sXnCFsbR7L5QOpBw34-6" value="&lt;font style=&quot;font-size: 14px;&quot;&gt;&lt;b&gt;Bronze Layer&lt;/b&gt;&lt;/font&gt;" style="rounded=1;whiteSpace=wrap;html=1;fillColor=#ffe6cc;strokeColor=#d79b00;" parent="1" vertex="1">
          <mxGeometry x="263" y="150" width="135" height="40" as="geometry" />
        </mxCell>
        <mxCell id="q3sXnCFsbR7L5QOpBw34-51" value="" style="edgeStyle=orthogonalEdgeStyle;rounded=0;orthogonalLoop=1;jettySize=auto;html=1;entryX=0;entryY=0.5;entryDx=0;entryDy=0;" parent="1" target="q3sXnCFsbR7L5QOpBw34-27" edge="1">
          <mxGeometry relative="1" as="geometry">
            <mxPoint x="393" y="248" as="sourcePoint" />
          </mxGeometry>
        </mxCell>
        <mxCell id="q3sXnCFsbR7L5QOpBw34-7" value="&lt;font&gt;crm.sale_details&lt;/font&gt;" style="rounded=1;whiteSpace=wrap;html=1;fillColor=#ffe6cc;strokeColor=#d79b00;" parent="1" vertex="1">
          <mxGeometry x="268" y="236" width="125" height="24" as="geometry" />
        </mxCell>
        <mxCell id="q3sXnCFsbR7L5QOpBw34-8" value="&lt;font style=&quot;font-size: 14px;&quot;&gt;Bronze Layer&lt;/font&gt;" style="rounded=1;whiteSpace=wrap;html=1;fillColor=#ffe6cc;strokeColor=#d79b00;" parent="1" vertex="1">
          <mxGeometry x="268" y="270" width="125" height="24" as="geometry" />
        </mxCell>
        <mxCell id="q3sXnCFsbR7L5QOpBw34-58" style="edgeStyle=orthogonalEdgeStyle;rounded=0;orthogonalLoop=1;jettySize=auto;html=1;entryX=0;entryY=0.5;entryDx=0;entryDy=0;" parent="1" source="q3sXnCFsbR7L5QOpBw34-9" target="q3sXnCFsbR7L5QOpBw34-29" edge="1">
          <mxGeometry relative="1" as="geometry" />
        </mxCell>
        <mxCell id="q3sXnCFsbR7L5QOpBw34-9" value="&lt;font&gt;crm_prd_info&lt;/font&gt;" style="rounded=1;whiteSpace=wrap;html=1;fillColor=#ffe6cc;strokeColor=#d79b00;" parent="1" vertex="1">
          <mxGeometry x="268" y="300" width="125" height="24" as="geometry" />
        </mxCell>
        <mxCell id="q3sXnCFsbR7L5QOpBw34-52" value="" style="edgeStyle=orthogonalEdgeStyle;rounded=0;orthogonalLoop=1;jettySize=auto;html=1;" parent="1" source="q3sXnCFsbR7L5QOpBw34-11" target="q3sXnCFsbR7L5QOpBw34-30" edge="1">
          <mxGeometry relative="1" as="geometry" />
        </mxCell>
        <mxCell id="q3sXnCFsbR7L5QOpBw34-11" value="&lt;font&gt;crm_cust_info&lt;/font&gt;" style="rounded=1;whiteSpace=wrap;html=1;fillColor=#ffe6cc;strokeColor=#d79b00;" parent="1" vertex="1">
          <mxGeometry x="268" y="270" width="125" height="24" as="geometry" />
        </mxCell>
        <mxCell id="q3sXnCFsbR7L5QOpBw34-14" value="&lt;font&gt;erp_cust_az12&lt;/font&gt;" style="rounded=1;whiteSpace=wrap;html=1;fillColor=#ffe6cc;strokeColor=#d79b00;" parent="1" vertex="1">
          <mxGeometry x="268" y="412" width="125" height="24" as="geometry" />
        </mxCell>
        <mxCell id="q3sXnCFsbR7L5QOpBw34-15" value="&lt;font style=&quot;font-size: 14px;&quot;&gt;Bronze Layer&lt;/font&gt;" style="rounded=1;whiteSpace=wrap;html=1;fillColor=#ffe6cc;strokeColor=#d79b00;" parent="1" vertex="1">
          <mxGeometry x="268" y="446" width="125" height="24" as="geometry" />
        </mxCell>
        <mxCell id="q3sXnCFsbR7L5QOpBw34-62" style="edgeStyle=orthogonalEdgeStyle;rounded=0;orthogonalLoop=1;jettySize=auto;html=1;entryX=0;entryY=0.5;entryDx=0;entryDy=0;" parent="1" source="q3sXnCFsbR7L5QOpBw34-16" target="q3sXnCFsbR7L5QOpBw34-33" edge="1">
          <mxGeometry relative="1" as="geometry" />
        </mxCell>
        <mxCell id="q3sXnCFsbR7L5QOpBw34-16" value="&lt;font&gt;erp_px_cat_g1v2&lt;/font&gt;" style="rounded=1;whiteSpace=wrap;html=1;fillColor=#ffe6cc;strokeColor=#d79b00;" parent="1" vertex="1">
          <mxGeometry x="268" y="476" width="125" height="24" as="geometry" />
        </mxCell>
        <mxCell id="q3sXnCFsbR7L5QOpBw34-17" value="&lt;font&gt;erp_loc_a101&lt;/font&gt;" style="rounded=1;whiteSpace=wrap;html=1;fillColor=#ffe6cc;strokeColor=#d79b00;" parent="1" vertex="1">
          <mxGeometry x="268" y="446" width="125" height="24" as="geometry" />
        </mxCell>
        <mxCell id="q3sXnCFsbR7L5QOpBw34-25" value="" style="rounded=1;whiteSpace=wrap;html=1;fillColor=none;" parent="1" vertex="1">
          <mxGeometry x="453" y="200" width="135" height="360" as="geometry" />
        </mxCell>
        <mxCell id="q3sXnCFsbR7L5QOpBw34-26" value="&lt;font style=&quot;font-size: 14px;&quot;&gt;&lt;b&gt;Silver Layer&lt;/b&gt;&lt;/font&gt;" style="rounded=1;whiteSpace=wrap;html=1;fillColor=#f5f5f5;strokeColor=#666666;fontColor=#333333;" parent="1" vertex="1">
          <mxGeometry x="453" y="150" width="135" height="40" as="geometry" />
        </mxCell>
        <mxCell id="q3sXnCFsbR7L5QOpBw34-27" value="&lt;font&gt;crm.sale_details&lt;/font&gt;" style="rounded=1;whiteSpace=wrap;html=1;fillColor=#f5f5f5;strokeColor=#666666;fontColor=#333333;" parent="1" vertex="1">
          <mxGeometry x="458" y="236" width="125" height="24" as="geometry" />
        </mxCell>
        <mxCell id="q3sXnCFsbR7L5QOpBw34-28" value="&lt;font style=&quot;font-size: 14px;&quot;&gt;Bronze Layer&lt;/font&gt;" style="rounded=1;whiteSpace=wrap;html=1;fillColor=#f5f5f5;strokeColor=#666666;fontColor=#333333;" parent="1" vertex="1">
          <mxGeometry x="458" y="270" width="125" height="24" as="geometry" />
        </mxCell>
        <mxCell id="q3sXnCFsbR7L5QOpBw34-29" value="&lt;font&gt;crm_prd_info&lt;/font&gt;" style="rounded=1;whiteSpace=wrap;html=1;fillColor=#f5f5f5;strokeColor=#666666;fontColor=#333333;" parent="1" vertex="1">
          <mxGeometry x="458" y="300" width="125" height="24" as="geometry" />
        </mxCell>
        <mxCell id="q3sXnCFsbR7L5QOpBw34-30" value="&lt;font&gt;crm_cust_info&lt;/font&gt;" style="rounded=1;whiteSpace=wrap;html=1;fillColor=#f5f5f5;strokeColor=#666666;fontColor=#333333;" parent="1" vertex="1">
          <mxGeometry x="458" y="270" width="125" height="24" as="geometry" />
        </mxCell>
        <mxCell id="q3sXnCFsbR7L5QOpBw34-31" value="&lt;font&gt;erp_cust_az12&lt;/font&gt;" style="rounded=1;whiteSpace=wrap;html=1;fillColor=#f5f5f5;strokeColor=#666666;fontColor=#333333;" parent="1" vertex="1">
          <mxGeometry x="458" y="412" width="125" height="24" as="geometry" />
        </mxCell>
        <mxCell id="q3sXnCFsbR7L5QOpBw34-32" value="&lt;font style=&quot;font-size: 14px;&quot;&gt;Bronze Layer&lt;/font&gt;" style="rounded=1;whiteSpace=wrap;html=1;fillColor=#f5f5f5;strokeColor=#666666;fontColor=#333333;" parent="1" vertex="1">
          <mxGeometry x="458" y="446" width="125" height="24" as="geometry" />
        </mxCell>
        <mxCell id="q3sXnCFsbR7L5QOpBw34-33" value="&lt;font&gt;erp_px_cat_g1v2&lt;/font&gt;" style="rounded=1;whiteSpace=wrap;html=1;fillColor=#f5f5f5;strokeColor=#666666;fontColor=#333333;" parent="1" vertex="1">
          <mxGeometry x="458" y="476" width="125" height="24" as="geometry" />
        </mxCell>
        <mxCell id="q3sXnCFsbR7L5QOpBw34-34" value="&lt;font&gt;erp_loc_a101&lt;/font&gt;" style="rounded=1;whiteSpace=wrap;html=1;fillColor=#f5f5f5;strokeColor=#666666;fontColor=#333333;" parent="1" vertex="1">
          <mxGeometry x="458" y="446" width="125" height="24" as="geometry" />
        </mxCell>
        <mxCell id="q3sXnCFsbR7L5QOpBw34-61" style="edgeStyle=orthogonalEdgeStyle;rounded=0;orthogonalLoop=1;jettySize=auto;html=1;entryX=0;entryY=0.5;entryDx=0;entryDy=0;" parent="1" source="q3sXnCFsbR7L5QOpBw34-17" target="q3sXnCFsbR7L5QOpBw34-34" edge="1">
          <mxGeometry relative="1" as="geometry">
            <mxPoint x="443" y="458" as="targetPoint" />
          </mxGeometry>
        </mxCell>
        <mxCell id="q3sXnCFsbR7L5QOpBw34-63" style="edgeStyle=orthogonalEdgeStyle;rounded=0;orthogonalLoop=1;jettySize=auto;html=1;entryX=0.03;entryY=0.624;entryDx=0;entryDy=0;entryPerimeter=0;" parent="1" source="q3sXnCFsbR7L5QOpBw34-14" target="q3sXnCFsbR7L5QOpBw34-25" edge="1">
          <mxGeometry relative="1" as="geometry" />
        </mxCell>
        <mxCell id="7WACxiwABu5pV-ZOFWdQ-1" value="" style="rounded=1;whiteSpace=wrap;html=1;fillColor=none;" vertex="1" parent="1">
          <mxGeometry x="663" y="200" width="135" height="360" as="geometry" />
        </mxCell>
        <mxCell id="7WACxiwABu5pV-ZOFWdQ-2" value="&lt;font style=&quot;font-size: 14px;&quot;&gt;&lt;b&gt;Gold Layer&lt;/b&gt;&lt;/font&gt;" style="rounded=1;whiteSpace=wrap;html=1;fillColor=#fff2cc;strokeColor=#d6b656;" vertex="1" parent="1">
          <mxGeometry x="663" y="150" width="135" height="40" as="geometry" />
        </mxCell>
        <mxCell id="7WACxiwABu5pV-ZOFWdQ-3" value="&lt;font&gt;fact_sales&lt;/font&gt;" style="rounded=1;whiteSpace=wrap;html=1;fillColor=#fff2cc;strokeColor=#d6b656;" vertex="1" parent="1">
          <mxGeometry x="668" y="236" width="125" height="24" as="geometry" />
        </mxCell>
        <mxCell id="7WACxiwABu5pV-ZOFWdQ-5" value="&lt;font&gt;dim_products&lt;/font&gt;" style="rounded=1;whiteSpace=wrap;html=1;fillColor=#fff2cc;strokeColor=#d6b656;" vertex="1" parent="1">
          <mxGeometry x="668" y="400" width="125" height="24" as="geometry" />
        </mxCell>
        <mxCell id="7WACxiwABu5pV-ZOFWdQ-6" value="&lt;font&gt;dim_customers&lt;/font&gt;" style="rounded=1;whiteSpace=wrap;html=1;fillColor=#fff2cc;strokeColor=#d6b656;" vertex="1" parent="1">
          <mxGeometry x="668" y="330" width="125" height="24" as="geometry" />
        </mxCell>
        <mxCell id="7WACxiwABu5pV-ZOFWdQ-11" value="" style="edgeStyle=none;orthogonalLoop=1;jettySize=auto;html=1;rounded=0;entryX=0;entryY=0.5;entryDx=0;entryDy=0;" edge="1" parent="1" target="7WACxiwABu5pV-ZOFWdQ-3">
          <mxGeometry width="80" relative="1" as="geometry">
            <mxPoint x="573" y="247.5" as="sourcePoint" />
            <mxPoint x="623" y="248" as="targetPoint" />
            <Array as="points" />
          </mxGeometry>
        </mxCell>
        <mxCell id="7WACxiwABu5pV-ZOFWdQ-15" value="" style="edgeStyle=none;orthogonalLoop=1;jettySize=auto;html=1;rounded=0;entryX=0;entryY=0.5;entryDx=0;entryDy=0;exitX=1;exitY=0.5;exitDx=0;exitDy=0;jumpStyle=gap;" edge="1" parent="1" source="q3sXnCFsbR7L5QOpBw34-30" target="7WACxiwABu5pV-ZOFWdQ-6">
          <mxGeometry width="80" relative="1" as="geometry">
            <mxPoint x="583" y="288" as="sourcePoint" />
            <mxPoint x="658" y="281.5" as="targetPoint" />
            <Array as="points" />
          </mxGeometry>
        </mxCell>
        <mxCell id="7WACxiwABu5pV-ZOFWdQ-17" value="" style="edgeStyle=none;orthogonalLoop=1;jettySize=auto;html=1;rounded=0;entryX=0;entryY=0.25;entryDx=0;entryDy=0;exitX=1;exitY=0.5;exitDx=0;exitDy=0;jumpStyle=gap;" edge="1" parent="1" target="7WACxiwABu5pV-ZOFWdQ-5">
          <mxGeometry width="80" relative="1" as="geometry">
            <mxPoint x="573" y="312" as="sourcePoint" />
            <mxPoint x="628" y="372" as="targetPoint" />
            <Array as="points" />
          </mxGeometry>
        </mxCell>
        <mxCell id="7WACxiwABu5pV-ZOFWdQ-18" value="" style="edgeStyle=none;orthogonalLoop=1;jettySize=auto;html=1;rounded=0;entryX=0.032;entryY=0.407;entryDx=0;entryDy=0;entryPerimeter=0;exitX=1;exitY=0.5;exitDx=0;exitDy=0;jumpStyle=gap;" edge="1" parent="1" source="q3sXnCFsbR7L5QOpBw34-31" target="7WACxiwABu5pV-ZOFWdQ-1">
          <mxGeometry width="80" relative="1" as="geometry">
            <mxPoint x="563" y="424" as="sourcePoint" />
            <mxPoint x="618" y="424.5" as="targetPoint" />
            <Array as="points" />
          </mxGeometry>
        </mxCell>
        <mxCell id="7WACxiwABu5pV-ZOFWdQ-19" value="" style="edgeStyle=none;orthogonalLoop=1;jettySize=auto;html=1;rounded=0;exitX=1.005;exitY=0.711;exitDx=0;exitDy=0;exitPerimeter=0;jumpStyle=gap;" edge="1" parent="1" source="q3sXnCFsbR7L5QOpBw34-25">
          <mxGeometry width="80" relative="1" as="geometry">
            <mxPoint x="608" y="458" as="sourcePoint" />
            <mxPoint x="668" y="354" as="targetPoint" />
            <Array as="points" />
          </mxGeometry>
        </mxCell>
        <mxCell id="7WACxiwABu5pV-ZOFWdQ-20" value="" style="edgeStyle=none;orthogonalLoop=1;jettySize=auto;html=1;rounded=0;entryX=0.022;entryY=0.594;entryDx=0;entryDy=0;entryPerimeter=0;exitX=1;exitY=0.5;exitDx=0;exitDy=0;jumpStyle=gap;" edge="1" parent="1" target="7WACxiwABu5pV-ZOFWdQ-1">
          <mxGeometry width="80" relative="1" as="geometry">
            <mxPoint x="574" y="489" as="sourcePoint" />
            <mxPoint x="628" y="412" as="targetPoint" />
            <Array as="points" />
          </mxGeometry>
        </mxCell>
        <mxCell id="7WACxiwABu5pV-ZOFWdQ-21" value="&lt;font style=&quot;font-size: 22px;&quot;&gt;&lt;b&gt;Data Flow Diagram&lt;/b&gt;&lt;/font&gt;" style="text;html=1;align=left;verticalAlign=middle;whiteSpace=wrap;rounded=0;" vertex="1" parent="1">
          <mxGeometry x="60" y="40" width="320" height="50" as="geometry" />
        </mxCell>
      </root>
    </mxGraphModel>
  </diagram>
</mxfile>
